<svg width="35" height="35" viewBox="0 0 35 35" fill="none" xmlns="http://www.w3.org/2000/svg">
<path d="M17.4521 21.7476C17.7883 21.7476 18.1109 21.881 18.3486 22.1187C18.5864 22.3564 18.7206 22.6789 18.7207 23.0151C18.7207 23.2659 18.6462 23.5117 18.5068 23.7202C18.3675 23.9286 18.1691 24.0911 17.9375 24.187C17.7059 24.2829 17.451 24.3082 17.2051 24.2593C16.9591 24.2104 16.733 24.089 16.5557 23.9116C16.3786 23.7344 16.2579 23.5089 16.209 23.2632C16.1601 23.0172 16.1853 22.7615 16.2812 22.5298C16.3772 22.2983 16.5397 22.1007 16.748 21.9614C16.9565 21.8222 17.2015 21.7476 17.4521 21.7476ZM17.4521 16.1841C17.7884 16.1841 18.1108 16.3184 18.3486 16.5562C18.5864 16.794 18.7207 17.1163 18.7207 17.4526C18.7207 17.7033 18.6461 17.9483 18.5068 18.1567C18.3675 18.3653 18.1692 18.5276 17.9375 18.6235C17.7058 18.7195 17.451 18.7447 17.2051 18.6958C16.9591 18.6469 16.733 18.5264 16.5557 18.3491C16.3784 18.1718 16.2579 17.9456 16.209 17.6997C16.1601 17.4538 16.1853 17.199 16.2812 16.9673C16.3772 16.7356 16.5395 16.5373 16.748 16.3979C16.9565 16.2587 17.2015 16.1841 17.4521 16.1841ZM17.7002 10.646C17.9459 10.6949 18.1714 10.8156 18.3486 10.9927C18.526 11.17 18.6474 11.3961 18.6963 11.6421C18.7452 11.888 18.7199 12.1429 18.624 12.3745C18.5281 12.6061 18.3657 12.8045 18.1572 12.9438C17.9487 13.0832 17.7029 13.1577 17.4521 13.1577C17.116 13.1576 16.7934 13.0234 16.5557 12.7856C16.3181 12.5479 16.1846 12.2253 16.1846 11.8892C16.1846 11.6385 16.2592 11.3935 16.3984 11.1851C16.5377 10.9767 16.7353 10.8142 16.9668 10.7183C17.1985 10.6223 17.4542 10.5971 17.7002 10.646Z" fill="#475569" stroke="#475569" stroke-width="0.081808"/>
</svg>
