<svg width="35" height="35" viewBox="0 0 35 35" fill="none" xmlns="http://www.w3.org/2000/svg">
<g clip-path="url(#clip0_8173_2271)">
<path d="M10.2529 10.949H24.6514C24.9008 10.949 25.14 11.048 25.3164 11.2244C25.4928 11.4008 25.5918 11.6399 25.5918 11.8894C25.5918 12.1389 25.4928 12.378 25.3164 12.5544C25.14 12.7309 24.9009 12.8298 24.6514 12.8298H24.2832V23.9968C24.2832 24.4197 24.1153 24.8256 23.8164 25.1248C23.5173 25.4238 23.1114 25.5924 22.6885 25.5925H12.2168C11.7937 25.5925 11.388 25.4239 11.0889 25.1248C10.7897 24.8256 10.6211 24.4199 10.6211 23.9968V12.8298H10.2529C10.0035 12.8298 9.76426 12.7308 9.58789 12.5544C9.41157 12.378 9.3125 12.1388 9.3125 11.8894C9.31253 11.64 9.41153 11.4008 9.58789 11.2244C9.76426 11.048 10.0035 10.949 10.2529 10.949ZM12.5029 23.7107H22.4014V12.8298H12.5029V23.7107ZM14.1797 7.67651H20.7246C20.9741 7.67651 21.2132 7.77555 21.3896 7.9519C21.566 8.12828 21.665 8.36752 21.665 8.61694C21.665 8.8664 21.566 9.10556 21.3896 9.28198C21.2132 9.45842 20.9741 9.55835 20.7246 9.55835H14.1797C13.9303 9.55828 13.691 9.45835 13.5146 9.28198C13.3384 9.10558 13.2393 8.86633 13.2393 8.61694C13.2393 8.36753 13.3383 8.12828 13.5146 7.9519C13.691 7.77554 13.9303 7.67659 14.1797 7.67651Z" fill="#475569" stroke="#475569" stroke-width="0.081808"/>
</g>
<defs>
<clipPath id="clip0_8173_2271">
<rect width="20.9429" height="20.9429" fill="white" transform="translate(6.98096 6.98096)"/>
</clipPath>
</defs>
</svg>
