<svg width="20" height="20" viewBox="0 0 20 20" fill="none" xmlns="http://www.w3.org/2000/svg">
<path fill-rule="evenodd" clip-rule="evenodd" d="M17.4933 5.8025C17.4916 5.7425 17.4741 5.68583 17.4583 5.62833C17.4458 5.58 17.4399 5.53083 17.4191 5.48667C17.3999 5.44333 17.3674 5.40833 17.3391 5.36833C17.3041 5.3175 17.2724 5.26667 17.2274 5.225C17.2199 5.2175 17.2166 5.2075 17.2083 5.20083C17.1783 5.175 17.1416 5.16583 17.1091 5.145C17.0591 5.1125 17.0099 5.07917 16.9533 5.0575C16.8974 5.0375 16.8424 5.0325 16.7849 5.02417C16.7449 5.01833 16.7091 5 16.6666 5H12.4999C12.0391 5 11.6666 5.37333 11.6666 5.83333C11.6666 6.29333 12.0391 6.66667 12.4999 6.66667H14.8549L11.4916 10.59L7.92826 8.4525C7.57576 8.23917 7.12242 8.3175 6.85909 8.63333L2.69242 13.6333C2.39826 13.9867 2.44576 14.5125 2.79909 14.8067C2.95576 14.9367 3.14409 15 3.33242 15C3.57159 15 3.80826 14.8983 3.97326 14.7L7.68326 10.2483L11.2374 12.3817C11.5866 12.5908 12.0349 12.5175 12.2991 12.2092L15.8333 8.08583V10C15.8333 10.46 16.2058 10.8333 16.6666 10.8333C17.1274 10.8333 17.4999 10.46 17.4999 10V5.83333C17.4999 5.8225 17.4941 5.81333 17.4933 5.8025" fill="#667085"/>
<mask id="mask0_7171_4555" style="mask-type:luminance" maskUnits="userSpaceOnUse" x="2" y="5" width="16" height="10">
<path fill-rule="evenodd" clip-rule="evenodd" d="M17.4933 5.8025C17.4916 5.7425 17.4741 5.68583 17.4583 5.62833C17.4458 5.58 17.4399 5.53083 17.4191 5.48667C17.3999 5.44333 17.3674 5.40833 17.3391 5.36833C17.3041 5.3175 17.2724 5.26667 17.2274 5.225C17.2199 5.2175 17.2166 5.2075 17.2083 5.20083C17.1783 5.175 17.1416 5.16583 17.1091 5.145C17.0591 5.1125 17.0099 5.07917 16.9533 5.0575C16.8974 5.0375 16.8424 5.0325 16.7849 5.02417C16.7449 5.01833 16.7091 5 16.6666 5H12.4999C12.0391 5 11.6666 5.37333 11.6666 5.83333C11.6666 6.29333 12.0391 6.66667 12.4999 6.66667H14.8549L11.4916 10.59L7.92826 8.4525C7.57576 8.23917 7.12242 8.3175 6.85909 8.63333L2.69242 13.6333C2.39826 13.9867 2.44576 14.5125 2.79909 14.8067C2.95576 14.9367 3.14409 15 3.33242 15C3.57159 15 3.80826 14.8983 3.97326 14.7L7.68326 10.2483L11.2374 12.3817C11.5866 12.5908 12.0349 12.5175 12.2991 12.2092L15.8333 8.08583V10C15.8333 10.46 16.2058 10.8333 16.6666 10.8333C17.1274 10.8333 17.4999 10.46 17.4999 10V5.83333C17.4999 5.8225 17.4941 5.81333 17.4933 5.8025" fill="white"/>
</mask>
<g mask="url(#mask0_7171_4555)">
<rect width="20" height="20" fill="#667085"/>
</g>
</svg>
