<svg width="18" height="18" viewBox="0 0 18 18" fill="none" xmlns="http://www.w3.org/2000/svg">
<path d="M2.72677 6.27186H4.77606C4.94527 6.75031 5.25863 7.16453 5.673 7.45751C6.08738 7.75049 6.58238 7.9078 7.08987 7.9078C7.59735 7.9078 8.09236 7.75049 8.50673 7.45751C8.9211 7.16453 9.23446 6.75031 9.40367 6.27186H14.7253C14.9423 6.27186 15.1503 6.18567 15.3038 6.03225C15.4572 5.87883 15.5434 5.67075 15.5434 5.45378C15.5434 5.23681 15.4572 5.02873 15.3038 4.87531C15.1503 4.72189 14.9423 4.6357 14.7253 4.6357H9.40367C9.23446 4.15725 8.9211 3.74303 8.50673 3.45005C8.09236 3.15707 7.59735 2.99976 7.08987 2.99976C6.58238 2.99976 6.08738 3.15707 5.673 3.45005C5.25863 3.74303 4.94527 4.15725 4.77606 4.6357H2.72677C2.5098 4.6357 2.30172 4.72189 2.1483 4.87531C1.99488 5.02873 1.90869 5.23681 1.90869 5.45378C1.90869 5.67075 1.99488 5.87883 2.1483 6.03225C2.30172 6.18567 2.5098 6.27186 2.72677 6.27186ZM7.08987 4.6357C7.25167 4.6357 7.40984 4.68368 7.54437 4.77357C7.6789 4.86346 7.78376 4.99123 7.84567 5.14071C7.90759 5.2902 7.92379 5.45469 7.89223 5.61338C7.86066 5.77207 7.78275 5.91784 7.66834 6.03225C7.55393 6.14666 7.40816 6.22458 7.24947 6.25614C7.09077 6.28771 6.92629 6.27151 6.7768 6.20959C6.62732 6.14767 6.49955 6.04281 6.40966 5.90828C6.31977 5.77375 6.27179 5.61558 6.27179 5.45378C6.27179 5.23681 6.35798 5.02873 6.5114 4.87531C6.66482 4.72189 6.8729 4.6357 7.08987 4.6357ZM14.7253 11.1803H13.7668C13.5976 10.7019 13.2842 10.2877 12.8698 9.99469C12.4555 9.70172 11.9604 9.5444 11.453 9.5444C10.9455 9.5444 10.4505 9.70172 10.0361 9.99469C9.62173 10.2877 9.30836 10.7019 9.13916 11.1803H2.72677C2.5098 11.1803 2.30172 11.2665 2.1483 11.42C1.99488 11.5734 1.90869 11.7815 1.90869 11.9984C1.90869 12.2154 1.99488 12.4235 2.1483 12.5769C2.30172 12.7303 2.5098 12.8165 2.72677 12.8165H9.13916C9.30836 13.2949 9.62173 13.7092 10.0361 14.0022C10.4505 14.2951 10.9455 14.4524 11.453 14.4524C11.9604 14.4524 12.4555 14.2951 12.8698 14.0022C13.2842 13.7092 13.5976 13.2949 13.7668 12.8165H14.7253C14.9423 12.8165 15.1503 12.7303 15.3038 12.5769C15.4572 12.4235 15.5434 12.2154 15.5434 11.9984C15.5434 11.7815 15.4572 11.5734 15.3038 11.42C15.1503 11.2665 14.9423 11.1803 14.7253 11.1803ZM11.453 12.8165C11.2912 12.8165 11.133 12.7685 10.9985 12.6786C10.8639 12.5887 10.7591 12.461 10.6972 12.3115C10.6352 12.162 10.619 11.9975 10.6506 11.8388C10.6822 11.6801 10.7601 11.5344 10.8745 11.42C10.9889 11.3055 11.1347 11.2276 11.2934 11.1961C11.4521 11.1645 11.6165 11.1807 11.766 11.2426C11.9155 11.3045 12.0433 11.4094 12.1332 11.5439C12.2231 11.6785 12.271 11.8366 12.271 11.9984C12.271 12.2154 12.1849 12.4235 12.0314 12.5769C11.878 12.7303 11.6699 12.8165 11.453 12.8165Z" fill="#475569"/>
</svg>
