<svg width="17" height="18" viewBox="0 0 17 18" fill="none" xmlns="http://www.w3.org/2000/svg">
<path d="M0.981445 3.31348H15.3799C15.6294 3.31348 15.8685 3.41248 16.0449 3.58887C16.2213 3.76527 16.3203 4.00443 16.3203 4.25391C16.3203 4.5034 16.2213 4.74252 16.0449 4.91895C15.8685 5.09538 15.6294 5.19434 15.3799 5.19434H15.0117V16.3613C15.0117 16.7842 14.8439 17.1901 14.5449 17.4893C14.2459 17.7883 13.8399 17.9569 13.417 17.957H2.94531C2.52222 17.957 2.11655 17.7884 1.81738 17.4893C1.51823 17.1901 1.34961 16.7844 1.34961 16.3613V5.19434H0.981445C0.732022 5.19427 0.49278 5.09532 0.316406 4.91895C0.140087 4.74253 0.0410156 4.50333 0.0410156 4.25391C0.0410452 4.00447 0.140043 3.76527 0.316406 3.58887C0.49278 3.41249 0.732022 3.31354 0.981445 3.31348ZM3.23145 16.0752H13.1299V5.19434H3.23145V16.0752ZM4.9082 0.0410156H11.4531C11.7026 0.0410158 11.9417 0.140052 12.1182 0.316406C12.2945 0.49278 12.3935 0.732022 12.3936 0.981445C12.3936 1.2309 12.2945 1.47006 12.1182 1.64648C11.9417 1.82292 11.7026 1.92285 11.4531 1.92285H4.9082C4.65879 1.92278 4.41953 1.82285 4.24316 1.64648C4.0669 1.47008 3.96777 1.23083 3.96777 0.981445C3.96784 0.732029 4.0668 0.492779 4.24316 0.316406C4.41953 0.140039 4.65879 0.0410894 4.9082 0.0410156Z" fill="#475569" stroke="#475569" stroke-width="0.081808"/>
</svg>
