<svg width="15" height="15" viewBox="0 0 15 15" fill="none" xmlns="http://www.w3.org/2000/svg">
<path d="M5.99926 4.3631C5.99926 4.14736 6.06323 3.93647 6.18309 3.75709C6.30294 3.57772 6.4733 3.43791 6.67261 3.35535C6.87192 3.27279 7.09124 3.25119 7.30283 3.29328C7.51442 3.33537 7.70878 3.43925 7.86133 3.5918C8.01387 3.74435 8.11776 3.93871 8.15985 4.1503C8.20194 4.36189 8.18033 4.5812 8.09778 4.78052C8.01522 4.97983 7.87541 5.15018 7.69603 5.27004C7.51666 5.3899 7.30577 5.45387 7.09003 5.45387C6.80074 5.45387 6.5233 5.33895 6.31874 5.13439C6.11418 4.92983 5.99926 4.65239 5.99926 4.3631ZM14.7254 7.36272C14.7254 8.81893 14.2936 10.2424 13.4846 11.4532C12.6756 12.664 11.5257 13.6077 10.1803 14.165C8.83496 14.7223 7.35456 14.8681 5.92633 14.584C4.4981 14.2999 3.18619 13.5987 2.1565 12.569C1.1268 11.5393 0.425568 10.2273 0.141476 8.79912C-0.142616 7.37089 0.00319017 5.89049 0.560457 4.54513C1.11772 3.19977 2.06142 2.04987 3.27222 1.24084C4.48301 0.431816 5.90652 0 7.36273 0C9.31478 0.00216534 11.1863 0.778574 12.5666 2.15888C13.9469 3.53919 14.7233 5.41067 14.7254 7.36272ZM13.0893 7.36272C13.0893 6.23012 12.7534 5.12294 12.1242 4.18122C11.4949 3.23949 10.6006 2.5055 9.55419 2.07207C8.50779 1.63864 7.35637 1.52523 6.24553 1.7462C5.13468 1.96716 4.11431 2.51256 3.31344 3.31343C2.51256 4.11431 1.96716 5.13468 1.7462 6.24553C1.52524 7.35637 1.63864 8.50779 2.07207 9.55418C2.5055 10.6006 3.23949 11.4949 4.18122 12.1242C5.12295 12.7534 6.23012 13.0893 7.36273 13.0893C8.88101 13.0877 10.3366 12.4838 11.4102 11.4102C12.4838 10.3366 13.0877 8.881 13.0893 7.36272ZM8.18081 9.86332V7.63542C8.18081 7.2738 8.03716 6.927 7.78146 6.6713C7.52576 6.4156 7.17895 6.27195 6.81734 6.27195C6.62414 6.27166 6.43708 6.33976 6.28928 6.46418C6.14148 6.5886 6.04248 6.76131 6.00982 6.95173C5.97715 7.14214 6.01294 7.33797 6.11083 7.50454C6.20872 7.6711 6.3624 7.79764 6.54465 7.86175V10.0897C6.54465 10.4513 6.6883 10.7981 6.944 11.0538C7.1997 11.3095 7.5465 11.4531 7.90811 11.4531C8.10131 11.4534 8.28838 11.3853 8.43618 11.2609C8.58398 11.1365 8.68298 10.9638 8.71564 10.7733C8.7483 10.5829 8.71252 10.3871 8.61463 10.2205C8.51674 10.054 8.36306 9.92743 8.18081 9.86332Z" fill="#CBD5E1"/>
</svg>
