<svg width="23" height="8" viewBox="0 0 23 8" fill="none" xmlns="http://www.w3.org/2000/svg">
<path fill-rule="evenodd" clip-rule="evenodd" d="M5.59579 7.29603H3.65875L2.20621 1.5915C2.13726 1.32909 1.99087 1.09711 1.77554 0.987771C1.23816 0.713003 0.645995 0.494329 0 0.384042V0.164417H3.12042C3.55109 0.164417 3.87408 0.494329 3.92792 0.877484L4.68158 4.99235L6.61768 0.164417H8.50088L5.59579 7.29603ZM9.57739 7.29603H7.74801L9.25439 0.164417H11.0838L9.57739 7.29603ZM13.4507 2.14015C13.5045 1.75604 13.8275 1.53642 14.2043 1.53642C14.7965 1.48128 15.4415 1.59156 15.9799 1.86538L16.3029 0.329912C15.7645 0.110288 15.1724 0 14.635 0C12.8594 0 11.5674 0.987834 11.5674 2.35882C11.5674 3.4018 12.4826 3.94943 13.1286 4.27935C13.8275 4.60831 14.0966 4.82793 14.0428 5.15689C14.0428 5.65034 13.5045 5.86996 12.9671 5.86996C12.3211 5.86996 11.6751 5.70548 11.0839 5.43071L10.7609 6.96713C11.4069 7.24095 12.1058 7.35124 12.7518 7.35124C14.7426 7.40543 15.9799 6.41855 15.9799 4.93727C15.9799 3.07189 13.4507 2.96255 13.4507 2.14015V2.14015ZM22.3821 7.29603L20.9296 0.164417H19.3694C19.0464 0.164417 18.7234 0.384042 18.6157 0.713003L15.926 7.29603H17.8092L18.185 6.254H20.4989L20.7143 7.29603H22.3821ZM19.6381 2.08502L20.1755 4.7728H18.6691L19.6381 2.08502Z" fill="#172B85"/>
</svg>
