<svg width="9" height="9" viewBox="0 0 9 9" fill="none" xmlns="http://www.w3.org/2000/svg">
<path d="M4.41764 0C3.54391 0 2.68981 0.25909 1.96333 0.744506C1.23685 1.22992 0.670635 1.91986 0.336274 2.72708C0.0019141 3.5343 -0.0855698 4.42253 0.0848856 5.27947C0.255341 6.13641 0.67608 6.92356 1.2939 7.54137C1.91171 8.15919 2.69886 8.57993 3.5558 8.75038C4.41273 8.92084 5.30097 8.83336 6.10819 8.499C6.91541 8.16463 7.60535 7.59842 8.09076 6.87194C8.57618 6.14546 8.83527 5.29136 8.83527 4.41763C8.83397 3.2464 8.36813 2.12352 7.53994 1.29533C6.71175 0.467144 5.58887 0.0012992 4.41764 0ZM4.41764 7.85357C3.73807 7.85357 3.07377 7.65206 2.50873 7.27451C1.94369 6.89697 1.5033 6.36035 1.24324 5.73251C0.983186 5.10467 0.915143 4.41382 1.04772 3.74732C1.1803 3.08081 1.50754 2.46858 1.98806 1.98806C2.46859 1.50753 3.08081 1.18029 3.74732 1.04772C4.41382 0.915141 5.10468 0.983184 5.73251 1.24324C6.36035 1.5033 6.89697 1.94369 7.27451 2.50873C7.65206 3.07377 7.85357 3.73807 7.85357 4.41763C7.8526 5.3286 7.49029 6.20198 6.84613 6.84613C6.20198 7.49028 5.3286 7.8526 4.41764 7.85357Z" fill="#F43F5E"/>
</svg>
