<svg width="15" height="15" viewBox="0 0 15 15" fill="none" xmlns="http://www.w3.org/2000/svg">
<path d="M14.628 12.955C13.6933 11.3145 12.2338 10.0363 10.4844 9.32612C11.3543 8.67365 11.9969 7.76401 12.3212 6.72603C12.6454 5.68806 12.6348 4.57438 12.291 3.54274C11.9471 2.51111 11.2873 1.61382 10.4052 0.977987C9.52298 0.342151 8.46311 0 7.37567 0C6.28823 0 5.22836 0.342151 4.34618 0.977987C3.46401 1.61382 2.80425 2.51111 2.46037 3.54274C2.1165 4.57438 2.10593 5.68806 2.43017 6.72603C2.75441 7.76401 3.39701 8.67365 4.26696 9.32612C2.51758 10.0363 1.05807 11.3145 0.123387 12.955C0.0654701 13.0481 0.026869 13.1519 0.0098781 13.2603C-0.00711277 13.3686 -0.00214657 13.4793 0.0244815 13.5857C0.0511097 13.692 0.0988561 13.792 0.164882 13.8796C0.230908 13.9671 0.313866 14.0405 0.408825 14.0954C0.503783 14.1502 0.608802 14.1854 0.71764 14.1989C0.826477 14.2124 0.936911 14.2038 1.04238 14.1738C1.14784 14.1437 1.24618 14.0927 1.33156 14.0239C1.41693 13.9551 1.4876 13.8698 1.53935 13.7731C2.77465 11.6379 4.9562 10.3644 7.37567 10.3644C9.79514 10.3644 11.9767 11.6386 13.212 13.7731C13.3241 13.9534 13.502 14.0831 13.708 14.1346C13.9141 14.1862 14.1321 14.1556 14.3159 14.0494C14.4998 13.9431 14.6352 13.7696 14.6934 13.5653C14.7516 13.3611 14.7282 13.1422 14.628 12.955ZM3.83065 5.18322C3.83065 4.48208 4.03857 3.79669 4.4281 3.21372C4.81763 2.63074 5.37128 2.17637 6.01905 1.90805C6.66682 1.63974 7.3796 1.56954 8.06727 1.70632C8.75493 1.84311 9.38659 2.18074 9.88237 2.67652C10.3782 3.1723 10.7158 3.80396 10.8526 4.49162C10.9894 5.17929 10.9191 5.89207 10.6508 6.53984C10.3825 7.18761 9.92815 7.74126 9.34517 8.13079C8.7622 8.52032 8.07681 8.72824 7.37567 8.72824C6.43581 8.72715 5.53475 8.35331 4.87016 7.68873C4.20558 7.02414 3.83174 6.12308 3.83065 5.18322Z" fill="#475569"/>
</svg>
