<svg width="8" height="15" viewBox="0 0 8 15" fill="none" xmlns="http://www.w3.org/2000/svg">
<path d="M0.0420153 4.02675C0.000675922 3.9271 -0.0101839 3.81744 0.0108096 3.71162C0.031803 3.60581 0.0837062 3.50859 0.159955 3.43228L3.43228 0.159955C3.48293 0.109247 3.54308 0.0690193 3.60929 0.0415731C3.6755 0.0141268 3.74647 0 3.81814 0C3.88981 0 3.96078 0.0141268 4.02699 0.0415731C4.0932 0.0690193 4.15335 0.109247 4.204 0.159955L7.47632 3.43228C7.55268 3.50855 7.60469 3.60577 7.62577 3.71162C7.64685 3.81747 7.63605 3.9272 7.59474 4.02691C7.55342 4.12662 7.48345 4.21182 7.39369 4.27175C7.30392 4.33167 7.19839 4.36361 7.09046 4.36352H0.545816C0.43795 4.3635 0.332512 4.33149 0.242836 4.27155C0.15316 4.2116 0.0832743 4.12641 0.0420153 4.02675ZM7.09046 9.81739H0.545816C0.437887 9.81731 0.332359 9.84925 0.242591 9.90917C0.152824 9.96909 0.0828538 10.0543 0.0415394 10.154C0.000224969 10.2537 -0.0105762 10.3634 0.0105032 10.4693C0.0315826 10.5751 0.0835946 10.6724 0.159955 10.7486L3.43228 14.021C3.48293 14.0717 3.54308 14.1119 3.60929 14.1393C3.6755 14.1668 3.74647 14.1809 3.81814 14.1809C3.88981 14.1809 3.96078 14.1668 4.02699 14.1393C4.0932 14.1119 4.15335 14.0717 4.204 14.021L7.47632 10.7486C7.55268 10.6724 7.60469 10.5751 7.62577 10.4693C7.64685 10.3634 7.63605 10.2537 7.59474 10.154C7.55342 10.0543 7.48345 9.96909 7.39369 9.90917C7.30392 9.84925 7.19839 9.81731 7.09046 9.81739Z" fill="#475569"/>
</svg>
