<svg width="14" height="12" viewBox="0 0 14 12" fill="none" xmlns="http://www.w3.org/2000/svg">
<path d="M13.3954 6.30814L8.4869 11.2166C8.33322 11.3703 8.12477 11.4566 7.90743 11.4566C7.69008 11.4566 7.48164 11.3703 7.32795 11.2166C7.17427 11.0629 7.08793 10.8545 7.08793 10.6371C7.08793 10.4198 7.17427 10.2114 7.32795 10.0577L10.8396 6.54743H0.81808C0.601112 6.54743 0.39303 6.46123 0.23961 6.30781C0.0861904 6.1544 0 5.94631 0 5.72935C0 5.51238 0.0861904 5.30429 0.23961 5.15087C0.39303 4.99745 0.601112 4.91126 0.81808 4.91126H10.8396L7.32932 1.39897C7.17563 1.24529 7.08929 1.03684 7.08929 0.819499C7.08929 0.602154 7.17563 0.393712 7.32932 0.240026C7.483 0.0863397 7.69145 2.2901e-09 7.90879 0C8.12614 -2.2901e-09 8.33458 0.0863397 8.48826 0.240026L13.3967 5.14851C13.473 5.22461 13.5335 5.31504 13.5748 5.41459C13.616 5.51414 13.6371 5.62085 13.637 5.72861C13.6369 5.83636 13.6155 5.94302 13.574 6.04248C13.5325 6.14193 13.4718 6.23221 13.3954 6.30814Z" fill="#475569"/>
</svg>
