<svg width="35" height="35" viewBox="0 0 35 35" fill="none" xmlns="http://www.w3.org/2000/svg">
<path d="M9.59863 16.5115H12.5439C12.7933 16.5115 13.0326 16.6106 13.209 16.7869C13.3853 16.9632 13.4852 17.2026 13.4854 17.4519C13.4854 17.7014 13.3854 17.9415 13.209 18.1179C13.0326 18.2941 12.7933 18.3933 12.5439 18.3933H9.88574V23.0564H25.0195V18.3933H22.3613C22.112 18.3933 21.8727 18.2941 21.6963 18.1179C21.5199 17.9415 21.4199 17.7014 21.4199 17.4519C21.42 17.2026 21.52 16.9632 21.6963 16.7869C21.8727 16.6107 22.112 16.5115 22.3613 16.5115H25.3066C25.7296 16.5116 26.1355 16.6802 26.4346 16.9792C26.7335 17.2784 26.9014 17.6843 26.9014 18.1072V23.3425C26.9014 23.7655 26.7336 24.1713 26.4346 24.4705C26.1355 24.7695 25.7296 24.9381 25.3066 24.9382H9.59863C9.1757 24.9381 8.76977 24.7695 8.4707 24.4705C8.17167 24.1713 8.00391 23.7655 8.00391 23.3425V18.1072C8.00391 17.6843 8.17177 17.2784 8.4707 16.9792C8.76977 16.6802 9.1757 16.5116 9.59863 16.5115ZM22.1133 19.4812C22.3593 19.4323 22.615 19.4575 22.8467 19.5535C23.0782 19.6494 23.2758 19.8119 23.415 20.0203C23.5543 20.2287 23.6288 20.4737 23.6289 20.7244C23.6289 21.0605 23.4954 21.3831 23.2578 21.6208C23.0201 21.8586 22.6975 21.9929 22.3613 21.9929C22.1105 21.9929 21.8648 21.9184 21.6562 21.7791C21.4478 21.6397 21.2854 21.4413 21.1895 21.2097C21.0936 20.9781 21.0683 20.7232 21.1172 20.4773C21.1661 20.2313 21.2875 20.0052 21.4648 19.8279C21.642 19.6508 21.8676 19.5302 22.1133 19.4812ZM17.4521 8.00366C17.7017 8.00366 17.9417 8.10262 18.1182 8.27905C18.2945 8.45541 18.3935 8.69473 18.3936 8.94409V15.1785L18.4629 15.1091L20.7139 12.8572C20.8905 12.6806 21.1301 12.5819 21.3799 12.5818C21.6298 12.5818 21.8701 12.6805 22.0469 12.8572C22.2236 13.0339 22.3223 13.2742 22.3223 13.5242C22.3222 13.774 22.2234 14.0135 22.0469 14.1902L18.1201 18.1169C18.0328 18.2046 17.9287 18.2745 17.8145 18.322C17.7001 18.3695 17.5769 18.3943 17.4531 18.3943C17.3294 18.3942 17.207 18.3694 17.0928 18.322C16.9784 18.2745 16.8745 18.2047 16.7871 18.1169L12.8604 14.1912C12.6837 14.0145 12.5841 13.775 12.584 13.5251C12.584 13.2752 12.6836 13.0349 12.8604 12.8582C13.037 12.6816 13.2766 12.5828 13.5264 12.5828C13.7763 12.5828 14.0166 12.6814 14.1934 12.8582L16.4424 15.1091L16.5117 15.1785V8.94409C16.5118 8.69472 16.6108 8.45542 16.7871 8.27905C16.9634 8.10273 17.2028 8.00379 17.4521 8.00366Z" fill="#475569" stroke="#475569" stroke-width="0.081808"/>
</svg>
