<svg width="18" height="18" viewBox="0 0 18 18" fill="none" xmlns="http://www.w3.org/2000/svg">
<path d="M4.95022 5.66249C4.90888 5.56285 4.89802 5.45318 4.91901 5.34736C4.94001 5.24155 4.99191 5.14433 5.06816 5.06802L8.34048 1.7957C8.39113 1.74499 8.45128 1.70476 8.51749 1.67732C8.5837 1.64987 8.65467 1.63574 8.72634 1.63574C8.79801 1.63574 8.86898 1.64987 8.93519 1.67732C9.0014 1.70476 9.06155 1.74499 9.1122 1.7957L12.3845 5.06802C12.4609 5.14429 12.5129 5.24151 12.534 5.34736C12.5551 5.45321 12.5443 5.56294 12.5029 5.66265C12.4616 5.76236 12.3917 5.84757 12.3019 5.90749C12.2121 5.96741 12.1066 5.99935 11.9987 5.99927H5.45402C5.34615 5.99924 5.24072 5.96724 5.15104 5.90729C5.06136 5.84735 4.99148 5.76215 4.95022 5.66249ZM11.9987 11.4531H5.45402C5.34609 11.4531 5.24056 11.485 5.15079 11.5449C5.06103 11.6048 4.99106 11.69 4.94974 11.7898C4.90843 11.8895 4.89763 11.9992 4.91871 12.105C4.93979 12.2109 4.9918 12.3081 5.06816 12.3844L8.34048 15.6567C8.39113 15.7074 8.45128 15.7476 8.51749 15.7751C8.5837 15.8025 8.65467 15.8167 8.72634 15.8167C8.79801 15.8167 8.86898 15.8025 8.93519 15.7751C9.0014 15.7476 9.06155 15.7074 9.1122 15.6567L12.3845 12.3844C12.4609 12.3081 12.5129 12.2109 12.534 12.105C12.5551 11.9992 12.5443 11.8895 12.5029 11.7898C12.4616 11.69 12.3917 11.6048 12.3019 11.5449C12.2121 11.485 12.1066 11.4531 11.9987 11.4531Z" fill="#475569"/>
</svg>
