<svg width="36" height="36" viewBox="0 0 36 36" fill="none" xmlns="http://www.w3.org/2000/svg">
<mask id="mask0_7171_4453" style="mask-type:luminance" maskUnits="userSpaceOnUse" x="0" y="0" width="36" height="36">
<path d="M36 0H0V36H36V0Z" fill="white"/>
</mask>
<g mask="url(#mask0_7171_4453)">
<path fill-rule="evenodd" clip-rule="evenodd" d="M18.5657 0C18.9634 0 19.2857 0.322355 19.2857 0.72V7.68148C19.2857 8.47285 20.3769 8.68495 20.6734 7.95119L23.281 1.49662C23.4301 1.12793 23.8496 0.949804 24.2185 1.09876L25.2675 1.52261C25.6361 1.67157 25.8143 2.0912 25.6653 2.4599L22.8852 9.34106C22.5913 10.0683 23.5071 10.6745 24.0619 10.1199L29.3096 4.87204C29.5909 4.59086 30.0467 4.59086 30.3278 4.87204L31.1279 5.67209C31.4091 5.95327 31.4091 6.40913 31.1279 6.69031L26.4154 11.4029C25.8529 11.9655 26.4838 12.8903 27.2128 12.5718L33.3198 9.90353C33.6843 9.74432 34.1087 9.91066 34.2679 10.275L34.7209 11.3118C34.88 11.6762 34.7137 12.1007 34.3494 12.2599L27.3121 15.3345C26.5972 15.6469 26.8202 16.7143 27.6003 16.7143H35.28C35.6776 16.7143 36 17.0366 36 17.4343V18.5657C36 18.9634 35.6776 19.2857 35.28 19.2857H27.6005C26.8202 19.2857 26.5973 20.3531 27.3121 20.6654L34.3494 23.7402C34.7137 23.8993 34.88 24.3238 34.7209 24.6881L34.2679 25.7249C34.1087 26.0894 33.6843 26.2557 33.3198 26.0964L27.2128 23.4283C26.4838 23.1097 25.8529 24.0345 26.4154 24.5972L31.1279 29.3096C31.4091 29.5909 31.4091 30.0467 31.1279 30.3278L30.3278 31.1279C30.0467 31.4091 29.5909 31.4091 29.3096 31.1279L24.0619 25.88C23.5071 25.3255 22.5913 25.9317 22.8852 26.6589L25.6653 33.5401C25.8143 33.9088 25.6361 34.3283 25.2675 34.4774L24.2185 34.9013C23.8496 35.0501 23.4301 34.8721 23.281 34.5033L20.6734 28.0489C20.3769 27.315 19.2857 27.5272 19.2857 28.3185V35.28C19.2857 35.6776 18.9634 36 18.5657 36H17.4343C17.0366 36 16.7143 35.6776 16.7143 35.28V28.3185C16.7143 27.5272 15.6232 27.315 15.3267 28.0489L12.7189 34.5033C12.5699 34.8721 12.1503 35.0501 11.7816 34.9013L10.7326 34.4774C10.3639 34.3283 10.1858 33.9088 10.3347 33.5401L13.1149 26.6589C13.4087 25.9317 12.4928 25.3255 11.9382 25.88L6.69033 31.1279C6.40915 31.4091 5.95327 31.4091 5.67211 31.1279L4.87206 30.3278C4.59088 30.0467 4.59088 29.5909 4.87206 29.3096L9.58462 24.597C10.1472 24.0345 9.51629 23.1097 8.78724 23.4283L2.68011 26.0964C2.31574 26.2557 1.89128 26.0894 1.73208 25.7249L1.27909 24.6881C1.11989 24.3238 1.28622 23.8993 1.65061 23.7402L8.68783 20.6654C9.40273 20.3531 9.17973 19.2857 8.39956 19.2857H0.72C0.322355 19.2857 0 18.9634 0 18.5657V17.4343C0 17.0366 0.322355 16.7143 0.72 16.7143H8.39959C9.17975 16.7143 9.40277 15.6469 8.68786 15.3345L1.6506 12.2599C1.28622 12.1007 1.11988 11.6762 1.27909 11.3118L1.73207 10.275C1.89128 9.91066 2.31572 9.74432 2.68011 9.90353L8.78724 12.5718C9.51629 12.8903 10.1472 11.9655 9.58462 11.4029L4.87206 6.69033C4.59088 6.40915 4.59088 5.95327 4.87206 5.67209L5.67209 4.87206C5.95327 4.59088 6.40915 4.59088 6.69033 4.87206L11.9382 10.1199C12.4928 10.6745 13.4087 10.0683 13.1149 9.34108L10.3347 2.4599C10.1858 2.0912 10.3639 1.67157 10.7326 1.52261L11.7816 1.09876C12.1503 0.949804 12.5699 1.12793 12.7189 1.49662L15.3267 7.95119C15.6232 8.68495 16.7143 8.47285 16.7143 7.68148V0.72C16.7143 0.322355 17.0366 0 17.4343 0H18.5657ZM18 25.7143C22.2604 25.7143 25.7143 22.2604 25.7143 18C25.7143 13.7395 22.2604 10.2857 18 10.2857C13.7395 10.2857 10.2857 13.7395 10.2857 18C10.2857 22.2604 13.7395 25.7143 18 25.7143Z" fill="#3B82F6"/>
</g>
</svg>
