<svg width="21" height="21" viewBox="0 0 21 21" fill="none" xmlns="http://www.w3.org/2000/svg">
<g clip-path="url(#clip0_7171_4619)">
<path d="M16.3405 8.81317L9.91549 2.2465C9.83802 2.16839 9.74586 2.1064 9.64431 2.06409C9.54276 2.02178 9.43384 2 9.32383 2C9.21382 2 9.1049 2.02178 9.00335 2.06409C8.9018 2.1064 8.80963 2.16839 8.73216 2.2465L2.30716 8.8215C2.15169 8.97822 2.02891 9.16427 1.94593 9.36884C1.86296 9.57341 1.82146 9.79242 1.82383 10.0132V16.9965C1.82318 17.4231 1.98614 17.8337 2.27914 18.1438C2.57214 18.4538 2.97288 18.6397 3.39883 18.6632H15.2488C15.6748 18.6397 16.0755 18.4538 16.3685 18.1438C16.6615 17.8337 16.8245 17.4231 16.8238 16.9965V10.0132C16.8245 9.56561 16.6512 9.13532 16.3405 8.81317ZM7.65716 16.9965V11.9965H10.9905V16.9965H7.65716ZM15.1572 16.9965H12.6572V11.1632C12.6572 10.9422 12.5694 10.7302 12.4131 10.5739C12.2568 10.4176 12.0448 10.3298 11.8238 10.3298H6.82383C6.60281 10.3298 6.39085 10.4176 6.23457 10.5739C6.07829 10.7302 5.99049 10.9422 5.99049 11.1632V16.9965H3.49049V9.97983L9.32383 4.0215L15.1572 10.0132V16.9965Z" fill="#3F3F46"/>
</g>
<defs>
<clipPath id="clip0_7171_4619">
<rect width="20.3524" height="20.3524" fill="white"/>
</clipPath>
</defs>
</svg>
