<svg width="20" height="20" viewBox="0 0 20 20" fill="none" xmlns="http://www.w3.org/2000/svg">
<path d="M4.1665 6.66626C4.62484 6.66626 5.00049 7.04191 5.00049 7.50024V16.6663C5.00049 17.1246 4.62484 17.5002 4.1665 17.5002C3.70832 17.5001 3.3335 17.1245 3.3335 16.6663V7.50024C3.3335 7.04202 3.70832 6.66644 4.1665 6.66626ZM10.0005 3.33325C10.4586 3.33343 10.8333 3.70818 10.8335 4.16626V16.6663C10.8335 17.1245 10.4587 17.5001 10.0005 17.5002C9.54215 17.5002 9.1665 17.1246 9.1665 16.6663V4.16626C9.16668 3.70807 9.54226 3.33325 10.0005 3.33325ZM15.8335 10.0002C16.2918 10.0002 16.6665 10.3749 16.6665 10.8333V16.6663C16.6665 17.1246 16.2918 17.5002 15.8335 17.5002C15.3752 17.5002 15.0005 17.1246 15.0005 16.6663V10.8333C15.0005 10.3749 15.3752 10.0002 15.8335 10.0002Z" fill="#667085"/>
<mask id="mask0_7171_4551" style="mask-type:luminance" maskUnits="userSpaceOnUse" x="3" y="3" width="14" height="15">
<path d="M4.1665 6.66626C4.62484 6.66626 5.00049 7.04191 5.00049 7.50024V16.6663C5.00049 17.1246 4.62484 17.5002 4.1665 17.5002C3.70832 17.5001 3.3335 17.1245 3.3335 16.6663V7.50024C3.3335 7.04202 3.70832 6.66644 4.1665 6.66626ZM10.0005 3.33325C10.4586 3.33343 10.8333 3.70818 10.8335 4.16626V16.6663C10.8335 17.1245 10.4587 17.5001 10.0005 17.5002C9.54215 17.5002 9.1665 17.1246 9.1665 16.6663V4.16626C9.16668 3.70807 9.54226 3.33325 10.0005 3.33325ZM15.8335 10.0002C16.2918 10.0002 16.6665 10.3749 16.6665 10.8333V16.6663C16.6665 17.1246 16.2918 17.5002 15.8335 17.5002C15.3752 17.5002 15.0005 17.1246 15.0005 16.6663V10.8333C15.0005 10.3749 15.3752 10.0002 15.8335 10.0002Z" fill="white"/>
</mask>
<g mask="url(#mask0_7171_4551)">
<rect width="20" height="20" fill="#667085"/>
</g>
</svg>
