<svg width="19" height="18" viewBox="0 0 19 18" fill="none" xmlns="http://www.w3.org/2000/svg">
<path d="M1.63574 8.54883H4.58105C4.83041 8.54883 5.06969 8.648 5.24609 8.82422C5.42241 9.00054 5.52234 9.23992 5.52246 9.48926C5.52246 9.73877 5.42253 9.97884 5.24609 10.1553C5.06969 10.3315 4.8304 10.4307 4.58105 10.4307H1.92285V15.0938H17.0566V10.4307H14.3984C14.1491 10.4307 13.9098 10.3315 13.7334 10.1553C13.557 9.97884 13.457 9.73877 13.457 9.48926C13.4572 9.23992 13.5571 9.00054 13.7334 8.82422C13.9098 8.648 14.1491 8.54883 14.3984 8.54883H17.3438C17.7667 8.54895 18.1726 8.71754 18.4717 9.0166C18.7706 9.31573 18.9385 9.72163 18.9385 10.1445V15.3799C18.9385 15.8029 18.7707 16.2087 18.4717 16.5078C18.1726 16.8069 17.7667 16.9755 17.3438 16.9756H1.63574C1.2128 16.9755 0.806883 16.8069 0.507812 16.5078C0.208784 16.2087 0.0410156 15.8029 0.0410156 15.3799V10.1445C0.0410156 9.72162 0.208879 9.31573 0.507812 9.0166C0.806883 8.71753 1.2128 8.54894 1.63574 8.54883ZM14.1504 11.5186C14.3964 11.4696 14.6521 11.4948 14.8838 11.5908C15.1153 11.6868 15.3129 11.8493 15.4521 12.0576C15.5914 12.266 15.6659 12.511 15.666 12.7617C15.666 13.0979 15.5325 13.4204 15.2949 13.6582C15.0572 13.896 14.7347 14.0302 14.3984 14.0303C14.1476 14.0303 13.9019 13.9557 13.6934 13.8164C13.485 13.6771 13.3225 13.4787 13.2266 13.2471C13.1307 13.0154 13.1054 12.7605 13.1543 12.5146C13.2032 12.2687 13.3246 12.0426 13.502 11.8652C13.6791 11.6882 13.9047 11.5675 14.1504 11.5186ZM9.48926 0.0410156C9.73877 0.0410156 9.97884 0.139973 10.1553 0.316406C10.3316 0.492768 10.4306 0.732082 10.4307 0.981445V7.21582L10.5 7.14648L12.751 4.89453C12.9276 4.71799 13.1672 4.61923 13.417 4.61914C13.6669 4.61914 13.9072 4.71782 14.084 4.89453C14.2607 5.07128 14.3594 5.31156 14.3594 5.56152C14.3593 5.81131 14.2606 6.05086 14.084 6.22754L10.1572 10.1543C10.0699 10.242 9.96584 10.3119 9.85156 10.3594C9.73721 10.4069 9.61406 10.4316 9.49023 10.4316C9.36655 10.4316 9.24411 10.4068 9.12988 10.3594C9.01553 10.3119 8.91162 10.242 8.82422 10.1543L4.89746 6.22852C4.7208 6.05185 4.62119 5.81233 4.62109 5.5625C4.62109 5.31253 4.72071 5.07226 4.89746 4.89551C5.07413 4.71892 5.31369 4.62019 5.56348 4.62012C5.81344 4.62012 6.05372 4.71876 6.23047 4.89551L8.47949 7.14648L8.54883 7.21582V0.981445C8.54889 0.732075 8.64791 0.492769 8.82422 0.316406C9.00054 0.140085 9.23992 0.041141 9.48926 0.0410156Z" fill="#475569" stroke="#475569" stroke-width="0.081808"/>
</svg>
