<svg width="3" height="14" viewBox="0 0 3 14" fill="none" xmlns="http://www.w3.org/2000/svg">
<path d="M1.30859 11.167C1.64476 11.167 1.96731 11.3005 2.20508 11.5381C2.44282 11.7758 2.57708 12.0984 2.57715 12.4346C2.57715 12.6854 2.50261 12.9311 2.36328 13.1396C2.22396 13.3481 2.02556 13.5105 1.79395 13.6064C1.56231 13.7023 1.3074 13.7276 1.06152 13.6787C0.815551 13.6298 0.589446 13.5084 0.412109 13.3311C0.235037 13.1539 0.114385 12.9283 0.0654297 12.6826C0.0165027 12.4366 0.0417215 12.1809 0.137695 11.9492C0.233669 11.7177 0.396152 11.5201 0.604492 11.3809C0.812925 11.2416 1.05792 11.1671 1.30859 11.167ZM1.30859 5.60352C1.64486 5.60352 1.96728 5.73783 2.20508 5.97559C2.44288 6.21339 2.57715 6.53577 2.57715 6.87207C2.57711 7.12274 2.50252 7.36773 2.36328 7.57617C2.22395 7.7847 2.02565 7.94699 1.79395 8.04297C1.56226 8.13892 1.30748 8.16416 1.06152 8.11523C0.815583 8.0663 0.589426 7.94587 0.412109 7.76855C0.234811 7.59123 0.11435 7.36508 0.0654297 7.11914C0.0165239 6.87319 0.0417319 6.6184 0.137695 6.38672C0.23367 6.15502 0.395971 5.95671 0.604492 5.81738C0.812902 5.67816 1.05796 5.60358 1.30859 5.60352ZM1.55664 0.0654297C1.80232 0.114371 2.02788 0.23504 2.20508 0.412109C2.38241 0.589446 2.50381 0.815551 2.55273 1.06152C2.60165 1.30742 2.57637 1.5623 2.48047 1.79395C2.38452 2.02558 2.22212 2.22395 2.01367 2.36328C1.80515 2.50261 1.55939 2.57715 1.30859 2.57715C0.972414 2.57706 0.649831 2.4428 0.412109 2.20508C0.174519 1.96731 0.0410156 1.64474 0.0410156 1.30859C0.041082 1.05792 0.115613 0.812925 0.254883 0.604492C0.394118 0.396155 0.591779 0.233678 0.823242 0.137695C1.05494 0.0417215 1.31067 0.0165027 1.55664 0.0654297Z" fill="#475569" stroke="#475569" stroke-width="0.081808"/>
</svg>
