<svg width="9" height="7" viewBox="0 0 9 7" fill="none" xmlns="http://www.w3.org/2000/svg">
<path d="M8.36572 0.838566L3.13001 6.07428C3.08441 6.12004 3.03022 6.15635 2.97056 6.18112C2.91089 6.2059 2.84693 6.21865 2.78232 6.21865C2.71772 6.21865 2.65376 6.2059 2.59409 6.18112C2.53443 6.15635 2.48024 6.12004 2.43464 6.07428L0.144015 3.78366C0.0983569 3.738 0.0621386 3.68379 0.0374284 3.62414C0.0127182 3.56448 6.80365e-10 3.50054 0 3.43597C-6.80365e-10 3.3714 0.0127182 3.30746 0.0374284 3.24781C0.0621386 3.18815 0.0983569 3.13395 0.144015 3.08829C0.189674 3.04263 0.243879 3.00641 0.303534 2.9817C0.36319 2.95699 0.427129 2.94427 0.4917 2.94427C0.556271 2.94427 0.620209 2.95699 0.679865 2.9817C0.739521 3.00641 0.793725 3.04263 0.839384 3.08829L2.78273 5.03164L7.67117 0.144015C7.76338 0.0518038 7.88845 0 8.01886 0C8.14926 0 8.27433 0.0518038 8.36654 0.144015C8.45875 0.236227 8.51056 0.361293 8.51056 0.4917C8.51056 0.622107 8.45875 0.747172 8.36654 0.839384L8.36572 0.838566Z" fill="#4F46E5"/>
</svg>
