<svg width="14" height="12" viewBox="0 0 14 12" fill="none" xmlns="http://www.w3.org/2000/svg">
<path d="M0.81808 3.2721H2.86737C3.03658 3.75055 3.34994 4.16478 3.76431 4.45775C4.17869 4.75073 4.67369 4.90805 5.18118 4.90805C5.68866 4.90805 6.18367 4.75073 6.59804 4.45775C7.01241 4.16478 7.32577 3.75055 7.49498 3.2721H12.8166C13.0336 3.2721 13.2416 3.18591 13.3951 3.03249C13.5485 2.87907 13.6347 2.67099 13.6347 2.45402C13.6347 2.23706 13.5485 2.02897 13.3951 1.87555C13.2416 1.72213 13.0336 1.63594 12.8166 1.63594H7.49498C7.32577 1.1575 7.01241 0.743272 6.59804 0.450295C6.18367 0.157318 5.68866 0 5.18118 0C4.67369 0 4.17869 0.157318 3.76431 0.450295C3.34994 0.743272 3.03658 1.1575 2.86737 1.63594H0.81808C0.601112 1.63594 0.39303 1.72213 0.23961 1.87555C0.0861904 2.02897 0 2.23706 0 2.45402C0 2.67099 0.0861904 2.87907 0.23961 3.03249C0.39303 3.18591 0.601112 3.2721 0.81808 3.2721ZM5.18118 1.63594C5.34298 1.63594 5.50114 1.68392 5.63568 1.77382C5.77021 1.86371 5.87506 1.99147 5.93698 2.14096C5.9989 2.29044 6.0151 2.45493 5.98354 2.61362C5.95197 2.77232 5.87406 2.91808 5.75965 3.03249C5.64524 3.14691 5.49947 3.22482 5.34078 3.25639C5.18208 3.28795 5.01759 3.27175 4.86811 3.20983C4.71863 3.14791 4.59086 3.04306 4.50097 2.90853C4.41107 2.77399 4.3631 2.61583 4.3631 2.45402C4.3631 2.23706 4.44929 2.02897 4.60271 1.87555C4.75613 1.72213 4.96421 1.63594 5.18118 1.63594ZM12.8166 8.18059H11.8581C11.6889 7.70214 11.3755 7.28792 10.9611 6.99494C10.5468 6.70196 10.0518 6.54464 9.54427 6.54464C9.03679 6.54464 8.54178 6.70196 8.12741 6.99494C7.71304 7.28792 7.39967 7.70214 7.23047 8.18059H0.81808C0.601112 8.18059 0.39303 8.26678 0.23961 8.4202C0.0861904 8.57362 0 8.7817 0 8.99867C0 9.21564 0.0861904 9.42372 0.23961 9.57714C0.39303 9.73056 0.601112 9.81675 0.81808 9.81675H7.23047C7.39967 10.2952 7.71304 10.7094 8.12741 11.0024C8.54178 11.2954 9.03679 11.4527 9.54427 11.4527C10.0518 11.4527 10.5468 11.2954 10.9611 11.0024C11.3755 10.7094 11.6889 10.2952 11.8581 9.81675H12.8166C13.0336 9.81675 13.2416 9.73056 13.3951 9.57714C13.5485 9.42372 13.6347 9.21564 13.6347 8.99867C13.6347 8.7817 13.5485 8.57362 13.3951 8.4202C13.2416 8.26678 13.0336 8.18059 12.8166 8.18059ZM9.54427 9.81675C9.38247 9.81675 9.2243 9.76877 9.08977 9.67888C8.95524 9.58898 8.85038 9.46122 8.78846 9.31173C8.72655 9.16225 8.71034 8.99776 8.74191 8.83907C8.77348 8.68038 8.85139 8.53461 8.9658 8.4202C9.08021 8.30579 9.22598 8.22787 9.38467 8.19631C9.54336 8.16474 9.70785 8.18094 9.85734 8.24286C10.0068 8.30478 10.1346 8.40963 10.2245 8.54417C10.3144 8.6787 10.3624 8.83687 10.3624 8.99867C10.3624 9.21564 10.2762 9.42372 10.1227 9.57714C9.96932 9.73056 9.76124 9.81675 9.54427 9.81675Z" fill="#475569"/>
</svg>
